<?xml version="1.0" encoding="UTF-8" standalone="no"?>
<svg width="256" height="192" viewBox="0 0 256 192" xmlns="http://www.w3.org/2000/svg"><title>Group</title><g fill="#29313C" fill-rule="evenodd"><path d="M240 80h-17.34C215.016 34.655 175.48 0 128 0c-16.85 0-33.45 4.453-48.01 12.877-7.648 4.425-10.262 14.212-5.838 21.86 4.427 7.65 14.21 10.26 21.863 5.838C105.71 34.965 116.77 32 128 32c29.765 0 54.85 20.428 61.975 48H176c-6.472 0-12.306 3.898-14.782 9.878-2.477 5.978-1.107 12.86 3.467 17.436l32 32C199.81 142.438 203.905 144 208 144c4.093 0 8.188-1.56 11.312-4.686l32-32c4.577-4.576 5.946-11.46 3.47-17.436C252.304 83.898 246.47 80 240 80zM159.982 151.425c-9.695 5.61-20.753 8.575-31.98 8.575-29.768 0-54.855-20.428-61.98-48H80c6.47 0 12.305-3.898 14.78-9.877 2.477-5.98 1.108-12.86-3.468-17.437l-32-32c-6.248-6.25-16.38-6.25-22.627 0l-32 32C.11 89.26-1.26 96.144 1.215 102.123 3.696 108.103 9.528 112 16 112h17.34c7.64 45.345 47.177 80 94.66 80 16.848 0 33.448-4.453 48.01-12.876 7.647-4.426 10.26-14.213 5.835-21.862-4.425-7.65-14.212-10.26-21.863-5.837z"/></g></svg>