<svg xmlns="http://www.w3.org/2000/svg" width="512" height="512" viewBox="0 0 512 512">
  <g fill="none" fill-rule="evenodd">
    <circle cx="256" cy="256" r="256" fill="#454545"/>
    <g fill="#F1FFFA" transform="translate(114 94)">
      <path d="M275.203948 72.5471163L155.184364 3.27590698C149.177506-.188790698 139.496-.188790698 133.542234 3.27211628L14.2886753 72.5471163C8.33111688 76.0080233 8.36524675 81.6144651 14.3721039 85.0791628L134.391688 154.354163C140.390961 157.807488 150.07626 157.81507 156.03761 154.357953L275.291169 85.0791628C281.241143 81.6182558 281.203221 76.0080233 275.203948 72.5471163L275.203948 72.5471163zM159.196519 87.1375116C151.297351 91.7280465 138.426597 91.7166744 130.474338 87.1299302 122.510701 82.531814 122.468987 75.0868837 130.371948 70.4963488 138.286286 65.9020233 151.145662 65.9020233 159.105506 70.4963488 167.057766 75.0868837 167.107065 82.5393953 159.196519 87.1375116L159.196519 87.1375116zM288.488052 95.8485349C288.469091 88.9608372 283.596104 86.1746744 277.589247 89.6393721L157.573455 158.910581C151.574182 162.371488 146.72774 170.775465 146.742909 177.659372L147.133506 315.523256C147.152468 322.407163 152.036831 325.193326 158.036104 321.732419L278.051896 252.465C284.054961 249.000302 288.893818 240.603907 288.874857 233.72L288.488052 95.8485349 288.488052 95.8485349zM182.154545 201.900884C174.202286 206.491419 167.721403 202.814442 167.698649 193.663698 167.672104 184.528116 174.107481 173.379674 182.063532 168.78914 190.027169 164.191023 196.500468 167.890744 196.523221 177.026326 196.549766 186.17707 190.125766 197.302767 182.154545 201.900884L182.154545 201.900884zM217.858182 222.241767C209.90213 226.832302 203.421247 223.155326 203.398494 214.008372 203.368156 204.869 209.811117 193.720558 217.763377 189.133814 225.730805 184.535698 232.200312 188.235419 232.223065 197.367209 232.245818 206.514163 225.821818 217.647442 217.858182 222.241767L217.858182 222.241767zM253.558026 242.582651C245.601974 247.173186 239.121091 243.492419 239.098338 234.341674 239.071792 225.194721 245.510961 214.057651 253.467013 209.467116 261.430649 204.869 267.900156 208.553558 267.922909 217.704302 267.945662 226.855047 261.521662 237.984535 253.558026 242.582651L253.558026 242.582651zM131.911584 159.00914L11.8768312 89.7303488C5.88135065 86.2694419 1.00836364 89.0480233.989402597 95.9433023L.598805195 233.810977C.579844156 240.694884 5.4187013 249.087488 11.4141818 252.544605L131.445143 321.827186C137.440623 325.284302 142.31361 322.49814 142.332571 315.610442L142.723169 177.742767C142.749714 170.847488 137.903273 162.466256 131.911584 159.00914L131.911584 159.00914zM36.1507532 246.157279C28.1833247 241.559163 21.7593247 230.425884 21.7820779 221.286512 21.8086234 212.135767 28.2781299 208.451209 36.2417662 213.049326 44.1978182 217.643651 50.6331948 228.769349 50.6066494 237.920093 50.5801039 247.055674 44.103013 250.747814 36.1507532 246.157279L36.1507532 246.157279zM36.1507532 160.923442C28.1871169 156.325326 21.7593247 145.199628 21.7858701 136.048884 21.8086234 126.90193 28.2819221 123.217372 36.2417662 127.815488 44.1978182 132.406023 50.6331948 143.539302 50.6104416 152.690047 50.5876883 161.833209 44.1068052 165.513977 36.1507532 160.923442L36.1507532 160.923442zM71.6154805 222.336535C63.6518442 217.738419 57.2240519 206.60514 57.2505974 197.465767 57.2771429 188.315023 63.7466494 184.630465 71.7064935 189.224791 79.6625455 193.819116 86.0979221 204.948605 86.0713766 214.099349 86.0486234 223.23493 79.5715325 226.92707 71.6154805 222.336535L71.6154805 222.336535zM107.091584 283.753419C99.1279481 279.159093 92.7001558 268.018233 92.7229091 258.87886 92.7494545 249.728116 99.218961 246.043558 107.182597 250.641674 115.134857 255.232209 121.562649 266.361698 121.536104 275.512442 121.513351 284.644233 115.043844 288.343953 107.091584 283.753419L107.091584 283.753419zM107.084 198.512C99.1279481 193.917674 92.6925714 182.788186 92.7191169 173.637442 92.7456623 164.50186 99.2227532 160.809721 107.178805 165.400256 115.142442 169.994581 121.570234 181.135442 121.543688 190.274814 121.517143 199.425558 115.047636 203.106326 107.084 198.512L107.084 198.512z"/>
    </g>
  </g>
</svg>
